<?xml version="1.0" standalone="no"?>
<!DOCTYPE svg PUBLIC "-//W3C//DTD SVG 20010904//EN"
 "http://www.w3.org/TR/2001/REC-SVG-20010904/DTD/svg10.dtd">
<svg version="1.0" xmlns="http://www.w3.org/2000/svg"
 width="200.000000pt" height="200.000000pt" viewBox="0 0 200.000000 200.000000"
 preserveAspectRatio="xMidYMid meet">

<g transform="translate(0.000000,200.000000) scale(0.100000,-0.100000)"
fill="#fff" stroke="none">
<path d="M793 1865 l-42 -36 -60 32 c-34 18 -64 29 -67 26 -4 -3 5 -20 20 -37
14 -18 24 -35 21 -40 -2 -4 -23 -10 -46 -14 -65 -10 -136 -45 -169 -83 -33
-37 -39 -63 -15 -63 25 0 18 -17 -34 -81 -54 -67 -109 -164 -99 -174 3 -4 19
0 36 9 22 11 32 12 41 3 18 -18 13 -32 -25 -78 -33 -40 -34 -44 -18 -56 9 -7
21 -14 26 -15 7 -3 6 -18 -1 -43 -6 -22 -11 -62 -11 -89 0 -47 1 -48 18 -32
18 16 20 13 50 -71 21 -58 28 -91 22 -97 -6 -6 -10 -19 -10 -31 0 -32 42 -188
55 -205 7 -8 15 -49 18 -90 12 -144 25 -168 140 -271 125 -111 256 -201 321
-219 61 -17 115 -4 199 47 106 64 284 221 312 274 8 15 17 71 21 125 5 81 12
111 37 162 21 44 31 84 35 131 4 61 2 70 -16 83 -21 14 -21 15 23 103 27 54
45 103 45 125 l1 35 16 -29 c14 -27 16 -28 26 -11 6 11 10 59 10 107 -1 74 2
87 13 77 12 -9 13 -6 8 22 -22 127 -88 256 -156 306 -50 36 -50 36 -27 49 23
12 21 14 -53 49 -60 29 -167 58 -238 65 -3 0 2 4 10 10 20 12 13 17 -55 35
-85 22 -203 20 -267 -5 -65 -25 -61 -25 -54 5 9 35 -10 32 -61 -10z m-80 -428
c17 -26 108 -89 236 -163 93 -55 141 -102 141 -141 0 -22 2 -24 16 -12 29 24
57 93 62 156 2 35 8 63 12 63 5 0 33 -24 63 -52 43 -41 58 -64 68 -101 6 -26
15 -50 20 -52 14 -9 73 20 113 55 l37 33 -7 -169 c-4 -93 -11 -177 -16 -187
-8 -16 -12 -13 -30 23 -30 61 -87 95 -158 95 -69 0 -118 -29 -151 -90 -12 -22
-23 -41 -24 -42 -1 -2 -19 6 -40 17 -49 25 -61 25 -110 0 -21 -11 -39 -19 -40
-17 -1 1 -12 20 -24 42 -68 124 -246 121 -308 -4 l-21 -41 -29 34 c-29 32 -31
39 -38 155 -7 118 -2 181 15 181 4 0 11 -19 14 -42 4 -24 15 -61 26 -83 l18
-40 1 61 c1 68 17 124 35 124 6 0 33 -18 60 -40 26 -22 52 -40 56 -40 5 0 -7
30 -27 68 -31 59 -35 73 -30 122 5 55 24 110 37 110 4 0 15 -11 23 -23z m97
-489 c57 -39 75 -72 75 -138 0 -92 -54 -150 -147 -158 -61 -4 -106 19 -145 77
-89 132 86 308 217 219z m541 -1 c104 -70 106 -197 6 -271 -40 -29 -134 -29
-173 0 -53 39 -69 71 -69 134 0 66 18 99 75 138 45 30 115 30 161 -1z m-861
-67 c11 18 56 -47 65 -95 8 -48 37 -97 68 -118 116 -76 256 -13 282 127 19 99
171 99 190 0 14 -80 64 -135 137 -155 103 -27 218 64 218 175 0 10 14 34 30
53 17 18 30 38 30 43 0 6 9 10 20 10 18 0 20 -7 20 -62 0 -46 -7 -77 -29 -127
-23 -51 -32 -90 -40 -173 -11 -128 -16 -137 -140 -245 -152 -133 -253 -193
-326 -193 -79 0 -170 56 -356 217 -112 96 -123 117 -140 255 -6 51 -15 98 -20
104 -14 18 -49 155 -48 194 l0 35 15 -29 c11 -20 18 -25 24 -16z"/>
<path d="M810 1180 l-25 -20 24 -19 c16 -12 20 -21 12 -25 -6 -4 -11 -12 -11
-18 0 -5 9 0 19 13 19 23 19 24 -1 37 -18 13 -18 15 -2 33 22 24 16 24 -16 -1z"/>
</g>
</svg>
